<svg xmlns="http://www.w3.org/2000/svg" xmlns:xlink="http://www.w3.org/1999/xlink" width="48" zoomAndPan="magnify" viewBox="0 0 36 36.000001" height="48" preserveAspectRatio="xMidYMid meet" version="1.0"><path fill="#ffffff" d="M 8.898438 2.171875 C 7.683594 2.328125 7.042969 2.621094 6.582031 3.070312 C 6.125 3.523438 5.824219 4.152344 5.660156 5.34375 C 5.492188 6.566406 5.492188 8.191406 5.492188 10.519531 L 5.492188 23.382812 C 6.089844 22.972656 6.738281 22.675781 7.441406 22.492188 C 8.234375 22.28125 9.15625 22.28125 10.511719 22.285156 L 29.503906 22.285156 L 29.503906 10.519531 C 29.503906 8.191406 29.5 6.566406 29.332031 5.34375 C 29.167969 4.152344 28.871094 3.523438 28.414062 3.070312 C 27.953125 2.621094 27.3125 2.328125 26.09375 2.171875 C 24.84375 2.003906 23.1875 2.003906 20.808594 2.003906 L 14.183594 2.003906 C 11.808594 2.003906 10.152344 2.003906 8.898438 2.171875 M 9.632812 8.898438 C 9.632812 8.226562 10.1875 7.683594 10.871094 7.683594 L 24.121094 7.683594 C 24.285156 7.679688 24.441406 7.710938 24.59375 7.769531 C 24.742188 7.832031 24.878906 7.917969 24.992188 8.035156 C 25.109375 8.148438 25.199219 8.277344 25.265625 8.429688 C 25.328125 8.578125 25.359375 8.734375 25.363281 8.898438 C 25.359375 9.058594 25.328125 9.214844 25.265625 9.367188 C 25.199219 9.515625 25.109375 9.648438 24.992188 9.761719 C 24.878906 9.875 24.742188 9.964844 24.59375 10.023438 C 24.441406 10.085938 24.285156 10.117188 24.121094 10.113281 L 10.871094 10.113281 C 10.710938 10.117188 10.554688 10.085938 10.402344 10.023438 C 10.25 9.964844 10.117188 9.878906 10 9.761719 C 9.882812 9.648438 9.792969 9.515625 9.730469 9.367188 C 9.667969 9.21875 9.632812 9.0625 9.632812 8.898438 M 10.871094 13.359375 C 10.710938 13.359375 10.554688 13.390625 10.402344 13.449219 C 10.25 13.511719 10.117188 13.597656 10 13.710938 C 9.882812 13.824219 9.792969 13.957031 9.730469 14.109375 C 9.667969 14.257812 9.632812 14.414062 9.632812 14.578125 C 9.632812 15.25 10.1875 15.792969 10.871094 15.792969 L 19.152344 15.792969 C 19.316406 15.796875 19.472656 15.765625 19.625 15.703125 C 19.773438 15.644531 19.910156 15.558594 20.023438 15.441406 C 20.140625 15.328125 20.230469 15.195312 20.296875 15.046875 C 20.359375 14.898438 20.394531 14.742188 20.394531 14.578125 C 20.394531 14.414062 20.359375 14.257812 20.296875 14.109375 C 20.234375 13.957031 20.140625 13.828125 20.027344 13.710938 C 19.910156 13.597656 19.773438 13.511719 19.625 13.449219 C 19.472656 13.390625 19.316406 13.359375 19.152344 13.359375 Z M 10.871094 13.359375 " fill-opacity="1" fill-rule="evenodd"/><path fill="#ffffff" d="M 10.703125 24.71875 L 29.503906 24.71875 C 29.5 26.414062 29.472656 27.679688 29.332031 28.679688 C 29.171875 29.871094 28.871094 30.5 28.414062 30.949219 C 27.953125 31.398438 27.3125 31.691406 26.097656 31.851562 C 24.84375 32.015625 23.1875 32.019531 20.8125 32.019531 L 14.183594 32.019531 C 11.808594 32.019531 10.152344 32.015625 8.898438 31.851562 C 7.683594 31.691406 7.042969 31.398438 6.582031 30.949219 C 6.125 30.5 5.824219 29.871094 5.660156 28.679688 C 5.601562 28.230469 5.558594 27.722656 5.535156 27.148438 C 5.746094 26.578125 6.074219 26.089844 6.523438 25.679688 C 6.976562 25.273438 7.496094 24.992188 8.082031 24.84375 C 8.519531 24.726562 9.082031 24.71875 10.703125 24.71875 " fill-opacity="1" fill-rule="nonzero"/></svg>